<?xml version="1.0" encoding="UTF-8" standalone="no"?>
<!DOCTYPE svg PUBLIC "-//W3C//DTD SVG 1.1//EN"
 "http://www.w3.org/Graphics/SVG/1.1/DTD/svg11.dtd">
<!-- Generated by graphviz version 12.2.1 (20241206.2353)
 -->
<!-- Title: G Pages: 1 -->
<svg width="703pt" height="634pt"
 viewBox="0.00 0.00 702.95 633.95" xmlns="http://www.w3.org/2000/svg" xmlns:xlink="http://www.w3.org/1999/xlink">
<g id="graph0" class="graph" transform="scale(1 1) rotate(0) translate(21.6 612.35)">
<title>G</title>
<polygon fill="#111111" stroke="none" points="-21.6,21.6 -21.6,-612.35 681.35,-612.35 681.35,21.6 -21.6,21.6"/>
<!-- adapters/external_services/AnalyticsServiceAdapter.js -->
<g id="node1" class="node">
<title>adapters/external_services/AnalyticsServiceAdapter.js</title>
<path fill="none" stroke="#c6c5fe" d="M332.08,-23.75C332.08,-23.75 7.92,-23.75 7.92,-23.75 3.96,-23.75 0,-19.79 0,-15.83 0,-15.83 0,-7.92 0,-7.92 0,-3.96 3.96,0 7.92,0 7.92,0 332.08,0 332.08,0 336.04,0 340,-3.96 340,-7.92 340,-7.92 340,-15.83 340,-15.83 340,-19.79 336.04,-23.75 332.08,-23.75"/>
<text text-anchor="middle" x="170" y="-6.45" font-family="Arial" font-size="14.00" fill="#c6c5fe">adapters/external_services/AnalyticsServiceAdapter.js</text>
</g>
<!-- application/interfaces/AnalyticsServicePort.js -->
<g id="node2" class="node">
<title>application/interfaces/AnalyticsServicePort.js</title>
<path fill="none" stroke="#cfffac" d="M651.83,-23.75C651.83,-23.75 383.92,-23.75 383.92,-23.75 379.96,-23.75 376,-19.79 376,-15.83 376,-15.83 376,-7.92 376,-7.92 376,-3.96 379.96,0 383.92,0 383.92,0 651.83,0 651.83,0 655.79,0 659.75,-3.96 659.75,-7.92 659.75,-7.92 659.75,-15.83 659.75,-15.83 659.75,-19.79 655.79,-23.75 651.83,-23.75"/>
<text text-anchor="middle" x="517.88" y="-6.45" font-family="Arial" font-size="14.00" fill="#cfffac">application/interfaces/AnalyticsServicePort.js</text>
</g>
<!-- adapters/external_services/AnalyticsServiceAdapter.js&#45;&gt;application/interfaces/AnalyticsServicePort.js -->
<g id="edge1" class="edge">
<title>adapters/external_services/AnalyticsServiceAdapter.js&#45;&gt;application/interfaces/AnalyticsServicePort.js</title>
<path fill="none" stroke="#757575" d="M340.39,-11.88C348.33,-11.88 356.27,-11.88 364.16,-11.88"/>
<polygon fill="#757575" stroke="#757575" points="364.15,-15.38 374.15,-11.88 364.15,-8.38 364.15,-15.38"/>
</g>
<!-- adapters/persistence/PrismaAnalyticsRepository.js -->
<g id="node3" class="node">
<title>adapters/persistence/PrismaAnalyticsRepository.js</title>
<path fill="none" stroke="#c6c5fe" d="M321.58,-86.75C321.58,-86.75 18.42,-86.75 18.42,-86.75 14.46,-86.75 10.5,-82.79 10.5,-78.83 10.5,-78.83 10.5,-70.92 10.5,-70.92 10.5,-66.96 14.46,-63 18.42,-63 18.42,-63 321.58,-63 321.58,-63 325.54,-63 329.5,-66.96 329.5,-70.92 329.5,-70.92 329.5,-78.83 329.5,-78.83 329.5,-82.79 325.54,-86.75 321.58,-86.75"/>
<text text-anchor="middle" x="170" y="-69.45" font-family="Arial" font-size="14.00" fill="#c6c5fe">adapters/persistence/PrismaAnalyticsRepository.js</text>
</g>
<!-- domain/models/Analytics.js -->
<g id="node4" class="node">
<title>domain/models/Analytics.js</title>
<path fill="none" stroke="#cfffac" d="M600.08,-107.75C600.08,-107.75 435.67,-107.75 435.67,-107.75 431.71,-107.75 427.75,-103.79 427.75,-99.83 427.75,-99.83 427.75,-91.92 427.75,-91.92 427.75,-87.96 431.71,-84 435.67,-84 435.67,-84 600.08,-84 600.08,-84 604.04,-84 608,-87.96 608,-91.92 608,-91.92 608,-99.83 608,-99.83 608,-103.79 604.04,-107.75 600.08,-107.75"/>
<text text-anchor="middle" x="517.88" y="-90.45" font-family="Arial" font-size="14.00" fill="#cfffac">domain/models/Analytics.js</text>
</g>
<!-- adapters/persistence/PrismaAnalyticsRepository.js&#45;&gt;domain/models/Analytics.js -->
<g id="edge2" class="edge">
<title>adapters/persistence/PrismaAnalyticsRepository.js&#45;&gt;domain/models/Analytics.js</title>
<path fill="none" stroke="#757575" d="M329.77,-84.51C359.13,-86.3 389.05,-88.11 416.1,-89.76"/>
<polygon fill="#757575" stroke="#757575" points="415.8,-93.24 425.99,-90.36 416.22,-86.26 415.8,-93.24"/>
</g>
<!-- domain/repositories/AnalyticsRepository.js -->
<g id="node5" class="node">
<title>domain/repositories/AnalyticsRepository.js</title>
<path fill="none" stroke="#cfffac" d="M644.71,-65.75C644.71,-65.75 391.04,-65.75 391.04,-65.75 387.08,-65.75 383.12,-61.79 383.12,-57.83 383.12,-57.83 383.12,-49.92 383.12,-49.92 383.12,-45.96 387.08,-42 391.04,-42 391.04,-42 644.71,-42 644.71,-42 648.67,-42 652.62,-45.96 652.62,-49.92 652.62,-49.92 652.62,-57.83 652.62,-57.83 652.62,-61.79 648.67,-65.75 644.71,-65.75"/>
<text text-anchor="middle" x="517.88" y="-48.45" font-family="Arial" font-size="14.00" fill="#cfffac">domain/repositories/AnalyticsRepository.js</text>
</g>
<!-- adapters/persistence/PrismaAnalyticsRepository.js&#45;&gt;domain/repositories/AnalyticsRepository.js -->
<g id="edge3" class="edge">
<title>adapters/persistence/PrismaAnalyticsRepository.js&#45;&gt;domain/repositories/AnalyticsRepository.js</title>
<path fill="none" stroke="#757575" d="M329.77,-65.24C343.57,-64.4 357.5,-63.55 371.19,-62.72"/>
<polygon fill="#757575" stroke="#757575" points="371.35,-66.22 381.12,-62.12 370.92,-59.23 371.35,-66.22"/>
</g>
<!-- adapters/persistence/PrismaLinkRepository.js -->
<g id="node6" class="node">
<title>adapters/persistence/PrismaLinkRepository.js</title>
<path fill="none" stroke="#c6c5fe" d="M306.96,-422.75C306.96,-422.75 33.04,-422.75 33.04,-422.75 29.08,-422.75 25.12,-418.79 25.12,-414.83 25.12,-414.83 25.12,-406.92 25.12,-406.92 25.12,-402.96 29.08,-399 33.04,-399 33.04,-399 306.96,-399 306.96,-399 310.92,-399 314.88,-402.96 314.88,-406.92 314.88,-406.92 314.88,-414.83 314.88,-414.83 314.88,-418.79 310.92,-422.75 306.96,-422.75"/>
<text text-anchor="middle" x="170" y="-405.45" font-family="Arial" font-size="14.00" fill="#c6c5fe">adapters/persistence/PrismaLinkRepository.js</text>
</g>
<!-- domain/models/Link.js -->
<g id="node7" class="node">
<title>domain/models/Link.js</title>
<path fill="none" stroke="#cfffac" d="M585.46,-380.75C585.46,-380.75 450.29,-380.75 450.29,-380.75 446.33,-380.75 442.38,-376.79 442.38,-372.83 442.38,-372.83 442.38,-364.92 442.38,-364.92 442.38,-360.96 446.33,-357 450.29,-357 450.29,-357 585.46,-357 585.46,-357 589.42,-357 593.38,-360.96 593.38,-364.92 593.38,-364.92 593.38,-372.83 593.38,-372.83 593.38,-376.79 589.42,-380.75 585.46,-380.75"/>
<text text-anchor="middle" x="517.88" y="-363.45" font-family="Arial" font-size="14.00" fill="#cfffac">domain/models/Link.js</text>
</g>
<!-- adapters/persistence/PrismaLinkRepository.js&#45;&gt;domain/models/Link.js -->
<g id="edge4" class="edge">
<title>adapters/persistence/PrismaLinkRepository.js&#45;&gt;domain/models/Link.js</title>
<path fill="none" stroke="#757575" d="M272.9,-398.5C323.08,-392.41 382.92,-385.14 430.77,-379.33"/>
<polygon fill="#757575" stroke="#757575" points="431.03,-382.82 440.54,-378.14 430.19,-375.88 431.03,-382.82"/>
</g>
<!-- domain/repositories/LinkRepository.js -->
<g id="node8" class="node">
<title>domain/repositories/LinkRepository.js</title>
<path fill="none" stroke="#cfffac" d="M630.08,-422.75C630.08,-422.75 405.67,-422.75 405.67,-422.75 401.71,-422.75 397.75,-418.79 397.75,-414.83 397.75,-414.83 397.75,-406.92 397.75,-406.92 397.75,-402.96 401.71,-399 405.67,-399 405.67,-399 630.08,-399 630.08,-399 634.04,-399 638,-402.96 638,-406.92 638,-406.92 638,-414.83 638,-414.83 638,-418.79 634.04,-422.75 630.08,-422.75"/>
<text text-anchor="middle" x="517.88" y="-405.45" font-family="Arial" font-size="14.00" fill="#cfffac">domain/repositories/LinkRepository.js</text>
</g>
<!-- adapters/persistence/PrismaLinkRepository.js&#45;&gt;domain/repositories/LinkRepository.js -->
<g id="edge5" class="edge">
<title>adapters/persistence/PrismaLinkRepository.js&#45;&gt;domain/repositories/LinkRepository.js</title>
<path fill="none" stroke="#757575" d="M315.18,-410.88C338.67,-410.88 362.9,-410.88 386.05,-410.88"/>
<polygon fill="#757575" stroke="#757575" points="385.81,-414.38 395.81,-410.88 385.81,-407.38 385.81,-414.38"/>
</g>
<!-- adapters/web/controllers/LinkController.js -->
<g id="node9" class="node">
<title>adapters/web/controllers/LinkController.js</title>
<path fill="none" stroke="#c6c5fe" d="M293.46,-338.75C293.46,-338.75 46.54,-338.75 46.54,-338.75 42.58,-338.75 38.62,-334.79 38.62,-330.83 38.62,-330.83 38.62,-322.92 38.62,-322.92 38.62,-318.96 42.58,-315 46.54,-315 46.54,-315 293.46,-315 293.46,-315 297.42,-315 301.38,-318.96 301.38,-322.92 301.38,-322.92 301.38,-330.83 301.38,-330.83 301.38,-334.79 297.42,-338.75 293.46,-338.75"/>
<text text-anchor="middle" x="170" y="-321.45" font-family="Arial" font-size="14.00" fill="#c6c5fe">adapters/web/controllers/LinkController.js</text>
</g>
<!-- domain/exceptions/LinkExceptions.js -->
<g id="node10" class="node">
<title>domain/exceptions/LinkExceptions.js</title>
<path fill="none" stroke="#cfffac" d="M628.58,-254.75C628.58,-254.75 407.17,-254.75 407.17,-254.75 403.21,-254.75 399.25,-250.79 399.25,-246.83 399.25,-246.83 399.25,-238.92 399.25,-238.92 399.25,-234.96 403.21,-231 407.17,-231 407.17,-231 628.58,-231 628.58,-231 632.54,-231 636.5,-234.96 636.5,-238.92 636.5,-238.92 636.5,-246.83 636.5,-246.83 636.5,-250.79 632.54,-254.75 628.58,-254.75"/>
<text text-anchor="middle" x="517.88" y="-237.45" font-family="Arial" font-size="14.00" fill="#cfffac">domain/exceptions/LinkExceptions.js</text>
</g>
<!-- adapters/web/controllers/LinkController.js&#45;&gt;domain/exceptions/LinkExceptions.js -->
<g id="edge6" class="edge">
<title>adapters/web/controllers/LinkController.js&#45;&gt;domain/exceptions/LinkExceptions.js</title>
<path fill="none" stroke="#757575" d="M295.69,-314.52C310.71,-312.11 325.76,-309.25 340,-305.88 388.72,-294.32 442.66,-273.95 478.01,-259.5"/>
<polygon fill="#757575" stroke="#757575" points="479.05,-262.86 486.95,-255.8 476.38,-256.39 479.05,-262.86"/>
</g>
<!-- adapters/web/routes/linkRoutes.js -->
<g id="node11" class="node">
<title>adapters/web/routes/linkRoutes.js</title>
<path fill="none" stroke="#cfffac" d="M271.33,-464.75C271.33,-464.75 68.67,-464.75 68.67,-464.75 64.71,-464.75 60.75,-460.79 60.75,-456.83 60.75,-456.83 60.75,-448.92 60.75,-448.92 60.75,-444.96 64.71,-441 68.67,-441 68.67,-441 271.33,-441 271.33,-441 275.29,-441 279.25,-444.96 279.25,-448.92 279.25,-448.92 279.25,-456.83 279.25,-456.83 279.25,-460.79 275.29,-464.75 271.33,-464.75"/>
<text text-anchor="middle" x="170" y="-447.45" font-family="Arial" font-size="14.00" fill="#cfffac">adapters/web/routes/linkRoutes.js</text>
</g>
<!-- adapters/web/routes/redirectRoutes.js -->
<g id="node12" class="node">
<title>adapters/web/routes/redirectRoutes.js</title>
<path fill="none" stroke="#cfffac" d="M283.71,-506.75C283.71,-506.75 56.29,-506.75 56.29,-506.75 52.33,-506.75 48.38,-502.79 48.38,-498.83 48.38,-498.83 48.38,-490.92 48.38,-490.92 48.38,-486.96 52.33,-483 56.29,-483 56.29,-483 283.71,-483 283.71,-483 287.67,-483 291.62,-486.96 291.62,-490.92 291.62,-490.92 291.62,-498.83 291.62,-498.83 291.62,-502.79 287.67,-506.75 283.71,-506.75"/>
<text text-anchor="middle" x="170" y="-489.45" font-family="Arial" font-size="14.00" fill="#cfffac">adapters/web/routes/redirectRoutes.js</text>
</g>
<!-- application/use_cases/CreateLinkUseCase.js -->
<g id="node13" class="node">
<title>application/use_cases/CreateLinkUseCase.js</title>
<path fill="none" stroke="#cfffac" d="M305.46,-548.75C305.46,-548.75 34.54,-548.75 34.54,-548.75 30.58,-548.75 26.62,-544.79 26.62,-540.83 26.62,-540.83 26.62,-532.92 26.62,-532.92 26.62,-528.96 30.58,-525 34.54,-525 34.54,-525 305.46,-525 305.46,-525 309.42,-525 313.38,-528.96 313.38,-532.92 313.38,-532.92 313.38,-540.83 313.38,-540.83 313.38,-544.79 309.42,-548.75 305.46,-548.75"/>
<text text-anchor="middle" x="170" y="-531.45" font-family="Arial" font-size="14.00" fill="#cfffac">application/use_cases/CreateLinkUseCase.js</text>
</g>
<!-- application/use_cases/DeleteLinkUseCase.js -->
<g id="node14" class="node">
<title>application/use_cases/DeleteLinkUseCase.js</title>
<path fill="none" stroke="#c6c5fe" d="M304.71,-296.75C304.71,-296.75 35.29,-296.75 35.29,-296.75 31.33,-296.75 27.38,-292.79 27.38,-288.83 27.38,-288.83 27.38,-280.92 27.38,-280.92 27.38,-276.96 31.33,-273 35.29,-273 35.29,-273 304.71,-273 304.71,-273 308.67,-273 312.62,-276.96 312.62,-280.92 312.62,-280.92 312.62,-288.83 312.62,-288.83 312.62,-292.79 308.67,-296.75 304.71,-296.75"/>
<text text-anchor="middle" x="170" y="-279.45" font-family="Arial" font-size="14.00" fill="#c6c5fe">application/use_cases/DeleteLinkUseCase.js</text>
</g>
<!-- application/use_cases/DeleteLinkUseCase.js&#45;&gt;domain/exceptions/LinkExceptions.js -->
<g id="edge7" class="edge">
<title>application/use_cases/DeleteLinkUseCase.js&#45;&gt;domain/exceptions/LinkExceptions.js</title>
<path fill="none" stroke="#757575" d="M272.9,-272.5C314.06,-267.5 361.71,-261.72 403.93,-256.59"/>
<polygon fill="#757575" stroke="#757575" points="404.1,-260.1 413.6,-255.42 403.25,-253.15 404.1,-260.1"/>
</g>
<!-- application/use_cases/GetAllLinksUseCase.js -->
<g id="node15" class="node">
<title>application/use_cases/GetAllLinksUseCase.js</title>
<path fill="none" stroke="#cfffac" d="M307.33,-590.75C307.33,-590.75 32.67,-590.75 32.67,-590.75 28.71,-590.75 24.75,-586.79 24.75,-582.83 24.75,-582.83 24.75,-574.92 24.75,-574.92 24.75,-570.96 28.71,-567 32.67,-567 32.67,-567 307.33,-567 307.33,-567 311.29,-567 315.25,-570.96 315.25,-574.92 315.25,-574.92 315.25,-582.83 315.25,-582.83 315.25,-586.79 311.29,-590.75 307.33,-590.75"/>
<text text-anchor="middle" x="170" y="-573.45" font-family="Arial" font-size="14.00" fill="#cfffac">application/use_cases/GetAllLinksUseCase.js</text>
</g>
<!-- application/use_cases/GetLinkAnalyticsUseCase.js -->
<g id="node16" class="node">
<title>application/use_cases/GetLinkAnalyticsUseCase.js</title>
<path fill="none" stroke="#c6c5fe" d="M323.46,-254.75C323.46,-254.75 16.54,-254.75 16.54,-254.75 12.58,-254.75 8.62,-250.79 8.62,-246.83 8.62,-246.83 8.62,-238.92 8.62,-238.92 8.62,-234.96 12.58,-231 16.54,-231 16.54,-231 323.46,-231 323.46,-231 327.42,-231 331.38,-234.96 331.38,-238.92 331.38,-238.92 331.38,-246.83 331.38,-246.83 331.38,-250.79 327.42,-254.75 323.46,-254.75"/>
<text text-anchor="middle" x="170" y="-237.45" font-family="Arial" font-size="14.00" fill="#c6c5fe">application/use_cases/GetLinkAnalyticsUseCase.js</text>
</g>
<!-- application/use_cases/GetLinkAnalyticsUseCase.js&#45;&gt;domain/exceptions/LinkExceptions.js -->
<g id="edge8" class="edge">
<title>application/use_cases/GetLinkAnalyticsUseCase.js&#45;&gt;domain/exceptions/LinkExceptions.js</title>
<path fill="none" stroke="#757575" d="M331.79,-242.88C350.4,-242.88 369.2,-242.88 387.32,-242.88"/>
<polygon fill="#757575" stroke="#757575" points="387.3,-246.38 397.3,-242.88 387.3,-239.38 387.3,-246.38"/>
</g>
<!-- application/use_cases/GetLinkByIdUseCase.js -->
<g id="node17" class="node">
<title>application/use_cases/GetLinkByIdUseCase.js</title>
<path fill="none" stroke="#c6c5fe" d="M309.96,-212.75C309.96,-212.75 30.04,-212.75 30.04,-212.75 26.08,-212.75 22.12,-208.79 22.12,-204.83 22.12,-204.83 22.12,-196.92 22.12,-196.92 22.12,-192.96 26.08,-189 30.04,-189 30.04,-189 309.96,-189 309.96,-189 313.92,-189 317.88,-192.96 317.88,-196.92 317.88,-196.92 317.88,-204.83 317.88,-204.83 317.88,-208.79 313.92,-212.75 309.96,-212.75"/>
<text text-anchor="middle" x="170" y="-195.45" font-family="Arial" font-size="14.00" fill="#c6c5fe">application/use_cases/GetLinkByIdUseCase.js</text>
</g>
<!-- application/use_cases/GetLinkByIdUseCase.js&#45;&gt;domain/exceptions/LinkExceptions.js -->
<g id="edge9" class="edge">
<title>application/use_cases/GetLinkByIdUseCase.js&#45;&gt;domain/exceptions/LinkExceptions.js</title>
<path fill="none" stroke="#757575" d="M272.9,-213.25C314.06,-218.25 361.71,-224.03 403.93,-229.16"/>
<polygon fill="#757575" stroke="#757575" points="403.25,-232.6 413.6,-230.33 404.1,-225.65 403.25,-232.6"/>
</g>
<!-- application/use_cases/RedirectLinkUseCase.js -->
<g id="node18" class="node">
<title>application/use_cases/RedirectLinkUseCase.js</title>
<path fill="none" stroke="#c6c5fe" d="M310.33,-170.75C310.33,-170.75 29.67,-170.75 29.67,-170.75 25.71,-170.75 21.75,-166.79 21.75,-162.83 21.75,-162.83 21.75,-154.92 21.75,-154.92 21.75,-150.96 25.71,-147 29.67,-147 29.67,-147 310.33,-147 310.33,-147 314.29,-147 318.25,-150.96 318.25,-154.92 318.25,-154.92 318.25,-162.83 318.25,-162.83 318.25,-166.79 314.29,-170.75 310.33,-170.75"/>
<text text-anchor="middle" x="170" y="-153.45" font-family="Arial" font-size="14.00" fill="#c6c5fe">application/use_cases/RedirectLinkUseCase.js</text>
</g>
<!-- application/use_cases/RedirectLinkUseCase.js&#45;&gt;domain/exceptions/LinkExceptions.js -->
<g id="edge10" class="edge">
<title>application/use_cases/RedirectLinkUseCase.js&#45;&gt;domain/exceptions/LinkExceptions.js</title>
<path fill="none" stroke="#757575" d="M295.69,-171.23C310.71,-173.64 325.76,-176.5 340,-179.88 388.72,-191.43 442.66,-211.8 478.01,-226.25"/>
<polygon fill="#757575" stroke="#757575" points="476.38,-229.36 486.95,-229.95 479.05,-222.89 476.38,-229.36"/>
</g>
<!-- application/use_cases/UpdateLinkUseCase.js -->
<g id="node19" class="node">
<title>application/use_cases/UpdateLinkUseCase.js</title>
<path fill="none" stroke="#c6c5fe" d="M306.96,-128.75C306.96,-128.75 33.04,-128.75 33.04,-128.75 29.08,-128.75 25.12,-124.79 25.12,-120.83 25.12,-120.83 25.12,-112.92 25.12,-112.92 25.12,-108.96 29.08,-105 33.04,-105 33.04,-105 306.96,-105 306.96,-105 310.92,-105 314.88,-108.96 314.88,-112.92 314.88,-112.92 314.88,-120.83 314.88,-120.83 314.88,-124.79 310.92,-128.75 306.96,-128.75"/>
<text text-anchor="middle" x="170" y="-111.45" font-family="Arial" font-size="14.00" fill="#c6c5fe">application/use_cases/UpdateLinkUseCase.js</text>
</g>
<!-- application/use_cases/UpdateLinkUseCase.js&#45;&gt;domain/exceptions/LinkExceptions.js -->
<g id="edge11" class="edge">
<title>application/use_cases/UpdateLinkUseCase.js&#45;&gt;domain/exceptions/LinkExceptions.js</title>
<path fill="none" stroke="#757575" d="M309.05,-129.21C319.64,-131.62 330.07,-134.48 340,-137.88 399.04,-158.08 459.9,-199.63 492.58,-223.96"/>
<polygon fill="#757575" stroke="#757575" points="490.11,-226.48 500.19,-229.72 494.32,-220.9 490.11,-226.48"/>
</g>
<!-- domain/services/LinkService.js -->
<g id="node20" class="node">
<title>domain/services/LinkService.js</title>
<path fill="none" stroke="#c6c5fe" d="M262.71,-380.75C262.71,-380.75 77.29,-380.75 77.29,-380.75 73.33,-380.75 69.38,-376.79 69.38,-372.83 69.38,-372.83 69.38,-364.92 69.38,-364.92 69.38,-360.96 73.33,-357 77.29,-357 77.29,-357 262.71,-357 262.71,-357 266.67,-357 270.62,-360.96 270.62,-364.92 270.62,-364.92 270.62,-372.83 270.62,-372.83 270.62,-376.79 266.67,-380.75 262.71,-380.75"/>
<text text-anchor="middle" x="170" y="-363.45" font-family="Arial" font-size="14.00" fill="#c6c5fe">domain/services/LinkService.js</text>
</g>
<!-- domain/services/LinkService.js&#45;&gt;domain/models/Link.js -->
<g id="edge13" class="edge">
<title>domain/services/LinkService.js&#45;&gt;domain/models/Link.js</title>
<path fill="none" stroke="#757575" d="M271.04,-368.88C321.56,-368.88 382.23,-368.88 430.66,-368.88"/>
<polygon fill="#757575" stroke="#757575" points="430.55,-372.38 440.55,-368.88 430.55,-365.38 430.55,-372.38"/>
</g>
<!-- domain/services/LinkService.js&#45;&gt;domain/exceptions/LinkExceptions.js -->
<g id="edge12" class="edge">
<title>domain/services/LinkService.js&#45;&gt;domain/exceptions/LinkExceptions.js</title>
<path fill="none" stroke="#757575" d="M270.85,-363.36C293.97,-360.21 318.18,-355.34 340,-347.88 399.04,-327.67 459.9,-286.12 492.58,-261.79"/>
<polygon fill="#757575" stroke="#757575" points="494.32,-264.85 500.19,-256.03 490.11,-259.27 494.32,-264.85"/>
</g>
</g>
</svg>
